<svg width="150" height="56" viewBox="0 0 150 56" fill="none" xmlns="http://www.w3.org/2000/svg">
<rect x="0.837891" width="148.324" height="56" rx="28" fill="#09A5DB"/>
<path d="M69.4242 24.4411C69.9973 24.4411 70.4897 24.542 70.9014 24.7438C71.3211 24.9456 71.648 25.2321 71.8821 25.6035C72.1162 25.9748 72.2332 26.4228 72.2332 26.9475C72.2332 27.4641 72.1162 27.9121 71.8821 28.2915C71.648 28.6628 71.3211 28.9493 70.9014 29.1511C70.4897 29.3529 69.9973 29.4538 69.4242 29.4538H67.6443V32.4324H66.3487V24.4411H69.4242ZM69.2183 28.3399C69.7914 28.3399 70.2112 28.2228 70.4776 27.9888C70.752 27.7466 70.8892 27.3995 70.8892 26.9475C70.8892 26.4874 70.752 26.1403 70.4776 25.9062C70.2112 25.664 69.7914 25.5429 69.2183 25.5429H67.6443V28.3399H69.2183ZM74.7148 23.6541V30.7373C74.7148 31.036 74.7673 31.2418 74.8722 31.3548C74.9772 31.4678 75.1507 31.5243 75.3929 31.5243C75.5382 31.5243 75.6593 31.5163 75.7561 31.5001C75.8611 31.4759 75.9902 31.4355 76.1436 31.379L75.9983 32.3477C75.8611 32.4123 75.7037 32.4607 75.5261 32.493C75.3485 32.5333 75.1709 32.5535 74.9933 32.5535C74.4525 32.5535 74.0529 32.4163 73.7946 32.1418C73.5444 31.8593 73.4193 31.4275 73.4193 30.8463V23.6541H74.7148ZM80.4477 28.5457C80.4477 28.1421 80.3347 27.8314 80.1087 27.6134C79.8908 27.3874 79.5881 27.2744 79.2006 27.2744C78.8374 27.2744 78.5266 27.3591 78.2683 27.5287C78.01 27.6982 77.8203 27.9726 77.6992 28.352L76.6095 27.8919C76.7628 27.3995 77.0615 27.004 77.5055 26.7053C77.9575 26.4066 78.5387 26.2573 79.249 26.2573C79.7334 26.2573 80.1612 26.338 80.5325 26.4995C80.9038 26.6528 81.1944 26.8869 81.4043 27.2017C81.6222 27.5165 81.7312 27.9201 81.7312 28.4125V31.1127C81.7312 31.4113 81.8805 31.5607 82.1792 31.5607C82.3245 31.5607 82.4658 31.5405 82.603 31.5001L82.5303 32.3961C82.3447 32.4849 82.1106 32.5293 81.8281 32.5293C81.5698 32.5293 81.3357 32.4849 81.1258 32.3961C80.924 32.2992 80.7626 32.158 80.6415 31.9723C80.5285 31.7786 80.472 31.5405 80.472 31.2579V31.1732L80.7383 31.1611C80.6657 31.4759 80.5164 31.7382 80.2903 31.9481C80.0643 32.1499 79.802 32.3033 79.5033 32.4082C79.2046 32.5051 78.9019 32.5535 78.5952 32.5535C78.2158 32.5535 77.8728 32.493 77.566 32.3719C77.2673 32.2508 77.0292 32.0692 76.8516 31.827C76.6821 31.5768 76.5974 31.2701 76.5974 30.9068C76.5974 30.4548 76.7427 30.0835 77.0333 29.7929C77.3319 29.5023 77.7517 29.3045 78.2925 29.1996L80.6415 28.7395L80.6294 29.6476L78.9221 29.9987C78.5831 30.0633 78.3288 30.1561 78.1593 30.2772C77.9898 30.3983 77.905 30.5759 77.905 30.8099C77.905 31.036 77.9898 31.2176 78.1593 31.3548C78.3369 31.484 78.571 31.5485 78.8616 31.5485C79.0634 31.5485 79.2571 31.5243 79.4428 31.4759C79.6365 31.4275 79.8101 31.3508 79.9634 31.2458C80.1168 31.1328 80.2338 30.9916 80.3146 30.8221C80.4033 30.6445 80.4477 30.4346 80.4477 30.1924V28.5457ZM86.1547 26.2573C86.6391 26.2573 87.0507 26.3299 87.3898 26.4752C87.7369 26.6125 88.0275 26.8102 88.2615 27.0685C88.4956 27.3268 88.6732 27.6215 88.7943 27.9524L87.5714 28.4368C87.4664 28.0654 87.2969 27.7829 87.0628 27.5892C86.8368 27.3874 86.5382 27.2865 86.1668 27.2865C85.8036 27.2865 85.4928 27.3712 85.2345 27.5408C84.9762 27.7022 84.7784 27.9403 84.6412 28.2551C84.5121 28.5699 84.4475 28.9574 84.4475 29.4175C84.4475 29.8696 84.5161 30.253 84.6533 30.5678C84.7906 30.8826 84.9883 31.1207 85.2466 31.2822C85.5049 31.4436 85.8117 31.5243 86.1668 31.5243C86.4413 31.5243 86.6794 31.4799 86.8812 31.3911C87.083 31.2943 87.2485 31.1611 87.3776 30.9916C87.5149 30.814 87.6077 30.6001 87.6561 30.3498L88.8306 30.7494C88.7176 31.1127 88.54 31.4315 88.2979 31.7059C88.0638 31.9723 87.7691 32.1822 87.414 32.3356C87.0588 32.4809 86.6512 32.5535 86.1911 32.5535C85.5937 32.5535 85.065 32.4284 84.6049 32.1782C84.1448 31.9279 83.7856 31.5687 83.5273 31.1005C83.277 30.6243 83.1519 30.0592 83.1519 29.4054C83.1519 28.7516 83.277 28.1906 83.5273 27.7224C83.7856 27.2461 84.1407 26.8829 84.5928 26.6327C85.0529 26.3824 85.5735 26.2573 86.1547 26.2573ZM92.6994 32.5535C92.094 32.5535 91.5613 32.4284 91.1012 32.1782C90.6411 31.9279 90.2819 31.5687 90.0236 31.1005C89.7733 30.6243 89.6482 30.0592 89.6482 29.4054C89.6482 28.7516 89.7733 28.1906 90.0236 27.7224C90.2819 27.2461 90.637 26.8829 91.0891 26.6327C91.5411 26.3824 92.0537 26.2573 92.6268 26.2573C93.2161 26.2573 93.7165 26.3784 94.1282 26.6205C94.5399 26.8627 94.8547 27.1937 95.0726 27.6134C95.2906 28.0332 95.3996 28.5094 95.3996 29.0422C95.3996 29.1875 95.3955 29.3247 95.3874 29.4538C95.3794 29.583 95.3673 29.696 95.3511 29.7929H90.4837V28.8H94.782L94.1403 28.9937C94.1403 28.4448 94.0031 28.0251 93.7286 27.7345C93.4542 27.4358 93.0788 27.2865 92.6026 27.2865C92.2555 27.2865 91.9528 27.3672 91.6945 27.5287C91.4362 27.6901 91.2384 27.9323 91.1012 28.2551C90.964 28.5699 90.8953 28.9574 90.8953 29.4175C90.8953 29.8696 90.968 30.253 91.1133 30.5678C91.2586 30.8826 91.4644 31.1207 91.7308 31.2822C91.9972 31.4436 92.312 31.5243 92.6752 31.5243C93.0788 31.5243 93.4058 31.4476 93.656 31.2943C93.9062 31.1409 94.104 30.927 94.2493 30.6525L95.2785 31.1369C95.1332 31.4275 94.9354 31.6817 94.6852 31.8997C94.443 32.1096 94.1524 32.271 93.8134 32.384C93.4744 32.497 93.103 32.5535 92.6994 32.5535ZM103.867 24.32C104.642 24.32 105.312 24.4855 105.877 24.8164C106.442 25.1474 106.878 25.6196 107.185 26.2331C107.491 26.8466 107.645 27.5811 107.645 28.4368C107.645 29.2924 107.491 30.027 107.185 30.6404C106.878 31.2539 106.442 31.7261 105.877 32.0571C105.312 32.388 104.642 32.5535 103.867 32.5535C103.1 32.5535 102.434 32.388 101.869 32.0571C101.304 31.7261 100.868 31.2539 100.561 30.6404C100.255 30.027 100.101 29.2924 100.101 28.4368C100.101 27.5811 100.255 26.8466 100.561 26.2331C100.868 25.6196 101.304 25.1474 101.869 24.8164C102.434 24.4855 103.1 24.32 103.867 24.32ZM103.867 25.4461C103.367 25.4461 102.935 25.5631 102.571 25.7972C102.216 26.0313 101.942 26.3703 101.748 26.8143C101.554 27.2582 101.457 27.7991 101.457 28.4368C101.457 29.0664 101.554 29.6072 101.748 30.0592C101.942 30.5032 102.216 30.8422 102.571 31.0763C102.935 31.3104 103.367 31.4275 103.867 31.4275C104.376 31.4275 104.807 31.3104 105.163 31.0763C105.526 30.8422 105.804 30.5032 105.998 30.0592C106.192 29.6072 106.289 29.0664 106.289 28.4368C106.289 27.7991 106.192 27.2582 105.998 26.8143C105.804 26.3703 105.526 26.0313 105.163 25.7972C104.807 25.5631 104.376 25.4461 103.867 25.4461ZM109.04 32.4324V26.3784H110.142L110.263 27.4681C110.424 27.0726 110.662 26.7739 110.977 26.5721C111.3 26.3622 111.695 26.2573 112.164 26.2573C112.285 26.2573 112.406 26.2694 112.527 26.2936C112.648 26.3098 112.749 26.338 112.83 26.3784L112.648 27.5165C112.559 27.4843 112.458 27.46 112.345 27.4439C112.24 27.4197 112.095 27.4076 111.909 27.4076C111.659 27.4076 111.413 27.4762 111.171 27.6134C110.929 27.7426 110.727 27.9403 110.565 28.2067C110.412 28.4731 110.335 28.8121 110.335 29.2238V32.4324H109.04ZM115.922 32.5535C115.421 32.5535 114.965 32.4284 114.553 32.1782C114.15 31.9279 113.831 31.5687 113.597 31.1005C113.363 30.6324 113.246 30.0714 113.246 29.4175C113.246 28.7395 113.371 28.1663 113.621 27.6982C113.871 27.23 114.206 26.8748 114.626 26.6327C115.046 26.3824 115.506 26.2573 116.006 26.2573C116.523 26.2573 116.959 26.3986 117.314 26.6811C117.669 26.9636 117.907 27.3309 118.028 27.7829L117.883 27.9161V23.6541H119.179V32.4324H118.028L117.932 30.7857L118.101 30.7978C118.045 31.1611 117.911 31.4759 117.701 31.7423C117.492 32.0006 117.229 32.2024 116.914 32.3477C116.608 32.4849 116.277 32.5535 115.922 32.5535ZM116.2 31.5122C116.547 31.5122 116.846 31.4234 117.096 31.2458C117.346 31.0683 117.54 30.818 117.677 30.4951C117.814 30.1723 117.883 29.7848 117.883 29.3328C117.883 28.913 117.814 28.5538 117.677 28.2551C117.54 27.9484 117.346 27.7143 117.096 27.5529C116.854 27.3914 116.571 27.3107 116.248 27.3107C115.708 27.3107 115.288 27.4964 114.989 27.8677C114.691 28.239 114.541 28.7516 114.541 29.4054C114.541 30.0592 114.687 30.5759 114.977 30.9552C115.268 31.3266 115.675 31.5122 116.2 31.5122ZM123.549 32.5535C122.944 32.5535 122.411 32.4284 121.951 32.1782C121.491 31.9279 121.132 31.5687 120.873 31.1005C120.623 30.6243 120.498 30.0592 120.498 29.4054C120.498 28.7516 120.623 28.1906 120.873 27.7224C121.132 27.2461 121.487 26.8829 121.939 26.6327C122.391 26.3824 122.903 26.2573 123.476 26.2573C124.066 26.2573 124.566 26.3784 124.978 26.6205C125.39 26.8627 125.704 27.1937 125.922 27.6134C126.14 28.0332 126.249 28.5094 126.249 29.0422C126.249 29.1875 126.245 29.3247 126.237 29.4538C126.229 29.583 126.217 29.696 126.201 29.7929H121.333V28.8H125.632L124.99 28.9937C124.99 28.4448 124.853 28.0251 124.578 27.7345C124.304 27.4358 123.928 27.2865 123.452 27.2865C123.105 27.2865 122.802 27.3672 122.544 27.5287C122.286 27.6901 122.088 27.9323 121.951 28.2551C121.814 28.5699 121.745 28.9574 121.745 29.4175C121.745 29.8696 121.818 30.253 121.963 30.5678C122.108 30.8826 122.314 31.1207 122.58 31.2822C122.847 31.4436 123.162 31.5243 123.525 31.5243C123.928 31.5243 124.255 31.4476 124.506 31.2943C124.756 31.1409 124.954 30.927 125.099 30.6525L126.128 31.1369C125.983 31.4275 125.785 31.6817 125.535 31.8997C125.293 32.1096 125.002 32.271 124.663 32.384C124.324 32.497 123.953 32.5535 123.549 32.5535ZM127.583 32.4324V26.3784H128.684L128.806 27.4681C128.967 27.0726 129.205 26.7739 129.52 26.5721C129.843 26.3622 130.238 26.2573 130.707 26.2573C130.828 26.2573 130.949 26.2694 131.07 26.2936C131.191 26.3098 131.292 26.338 131.372 26.3784L131.191 27.5165C131.102 27.4843 131.001 27.46 130.888 27.4439C130.783 27.4197 130.638 27.4076 130.452 27.4076C130.202 27.4076 129.956 27.4762 129.714 27.6134C129.471 27.7426 129.27 27.9403 129.108 28.2067C128.955 28.4731 128.878 28.8121 128.878 29.2238V32.4324H127.583Z" fill="white"/>
<path d="M51.5408 28C51.5408 36.3589 44.7645 43.1351 36.4056 43.1351C28.0467 43.1351 21.2705 36.3589 21.2705 28C21.2705 19.6411 28.0467 12.8649 36.4056 12.8649C44.7645 12.8649 51.5408 19.6411 51.5408 28Z" fill="white"/>
<path d="M40.7738 23.1177H34.1827C33.7782 23.1177 33.4503 23.4456 33.4503 23.85C33.4503 24.2545 33.7782 24.5824 34.1827 24.5824H39.0058L31.7675 31.8207L32.8031 32.8564L40.0414 25.6181V30.4412C40.0414 30.8456 40.3693 31.1735 40.7738 31.1735C41.1782 31.1735 41.5061 30.8456 41.5061 30.4412V23.85C41.5061 23.4456 41.1782 23.1177 40.7738 23.1177Z" fill="#011B33"/>
</svg>
